<svg width="14" height="14" viewBox="0 0 14 14" fill="none" xmlns="http://www.w3.org/2000/svg">
<g clip-path="url(#clip0_9_37)">
<path fill-rule="evenodd" clip-rule="evenodd" d="M10.8377 1.59049V2.47119H12.3118H12.313V2.47347C12.7786 2.47461 13.2007 2.65234 13.5054 2.94059C13.8077 3.22656 13.9964 3.62191 13.9976 4.05941H14V4.06169V12.4095V12.4106H13.9976C13.9964 12.8481 13.8077 13.2458 13.5018 13.534C13.1982 13.8188 12.7786 13.9966 12.3142 13.9977V14H12.3118H4.85048H4.84927V13.9977C4.3849 13.9966 3.96165 13.8188 3.65691 13.5306C3.35458 13.2446 3.16593 12.8493 3.16472 12.4118H3.1623V12.4095V10.5399H1.68817H1.68697V10.5376C1.2226 10.5365 0.799344 10.3587 0.494601 10.0705C0.192278 9.78451 0.00362788 9.38916 0.00241859 8.95166H0V8.94938V1.59049V1.58936H0.00241859C0.00362788 1.15072 0.193487 0.753092 0.498229 0.465983C0.801762 0.181152 1.22139 0.00341797 1.68576 0.00227865V0H1.68817H9.14952H9.15073V0.00227865C9.61631 0.00341797 10.0384 0.181152 10.3431 0.469401C10.6454 0.755371 10.8341 1.15072 10.8353 1.58822H10.8377V1.59049ZM9.55826 2.47119V1.59049V1.58822H9.56068C9.56068 1.48454 9.51352 1.38883 9.43854 1.3182C9.36478 1.2487 9.26199 1.20426 9.15194 1.20426V1.20654H9.15073H1.68938H1.68697V1.20426C1.57692 1.20426 1.47534 1.2487 1.40036 1.31934C1.3266 1.38883 1.27943 1.48568 1.27943 1.58936H1.28185V1.59049V8.94938V8.95166H1.27943C1.27943 9.05534 1.3266 9.15104 1.40157 9.22168C1.47534 9.29118 1.57813 9.33561 1.68817 9.33561V9.33333H1.68938H3.16351V4.06169V4.06055H3.16593C3.16714 3.62191 3.357 3.22428 3.66174 2.93717C3.96528 2.65234 4.3849 2.47461 4.84927 2.47347V2.47119H4.85169H9.55826ZM12.7194 12.4095V4.06169V4.05941H12.7218C12.7218 3.95573 12.6746 3.86003 12.5996 3.78939C12.5259 3.71989 12.4231 3.67546 12.313 3.67546V3.67773H12.3118H4.85048H4.84806V3.67546C4.73802 3.67546 4.63643 3.71989 4.56146 3.79053C4.48769 3.86003 4.44053 3.95687 4.44053 4.06055H4.44295V4.06169V12.4095V12.4118H4.44053C4.44053 12.5155 4.48769 12.6112 4.56267 12.6818C4.63643 12.7513 4.73922 12.7957 4.84927 12.7957V12.7935H4.85048H12.3118H12.3142V12.7957C12.4243 12.7957 12.5259 12.7513 12.6008 12.6807C12.6746 12.6112 12.7218 12.5143 12.7218 12.4106H12.7194V12.4095Z" fill="#FDF5F5"/>
</g>
<defs>
<clipPath id="clip0_9_37">
<rect width="14" height="14" fill="white"/>
</clipPath>
</defs>
</svg>
